<svg xmlns="http://www.w3.org/2000/svg" xmlns:xlink="http://www.w3.org/1999/xlink" width="2000" zoomAndPan="magnify" viewBox="0 0 1500 1499.999933" height="2000" preserveAspectRatio="xMidYMid meet" version="1.0"><path fill="#000000" d="M 681.550781 57.914062 C 514.160156 78.207031 364.253906 149.710938 256.746094 260.546875 C 149.132812 371.488281 85.964844 504.125 63.003906 667.339844 C 57.855469 703.953125 57.171875 791.523438 61.738281 829.179688 C 88.28125 1047.96875 205.011719 1235.789062 384.554688 1348.601562 C 415.394531 1367.976562 476.882812 1398.277344 510.636719 1410.726562 C 546.953125 1424.121094 592.777344 1436.140625 638.09375 1444.148438 C 675.53125 1450.769531 682.21875 1451.183594 751.214844 1451.175781 C 831.363281 1451.171875 854.0625 1448.605469 919.375 1432.175781 C 1013.699219 1408.445312 1106.53125 1362.375 1182.359375 1301.667969 C 1210.304688 1279.296875 1262.820312 1226.902344 1284.636719 1199.632812 C 1410.363281 1042.476562 1466.1875 828.476562 1432.390625 633.203125 C 1410.691406 507.835938 1361.574219 396 1286.339844 300.679688 C 1266.050781 274.976562 1215.015625 223.4375 1188.683594 202.0625 C 1089.8125 121.808594 976.15625 74.015625 846.117188 58.011719 C 807.839844 53.300781 720.03125 53.246094 681.550781 57.914062 M 699.378906 82.292969 C 640.828125 88.289062 571.75 104.195312 518.902344 123.851562 C 357.9375 183.714844 241.347656 289.375 161.867188 447.417969 C 95.5 579.386719 72.757812 727.636719 97.675781 865.84375 C 109.054688 928.960938 127.988281 985.078125 159.527344 1049.175781 C 177.996094 1086.710938 217.15625 1151.648438 221.273438 1151.558594 C 222.066406 1151.539062 225.429688 1147.273438 228.746094 1142.074219 C 239.589844 1125.066406 263.132812 1093.597656 265.070312 1093.511719 C 266.117188 1093.464844 266.96875 1095.855469 266.96875 1098.820312 C 266.96875 1111.144531 284.03125 1128.832031 295.921875 1128.832031 C 303.8125 1128.832031 299.265625 1133.949219 272.027344 1155.722656 C 256.726562 1167.953125 244.222656 1179.136719 244.234375 1180.578125 C 244.277344 1184.691406 293.765625 1237.871094 317.542969 1259.351562 C 361.75 1299.289062 408.890625 1331.230469 461.238281 1356.714844 C 624.710938 1436.308594 808.085938 1445.515625 979.789062 1382.746094 C 1017.585938 1368.933594 1077.777344 1338.140625 1113.082031 1314.566406 C 1273.425781 1207.484375 1375.222656 1043.058594 1406.539062 840.558594 C 1412.851562 799.765625 1412.859375 704.691406 1406.5625 662.285156 C 1383.421875 506.46875 1320.601562 373.707031 1222.0625 272.367188 C 1114.828125 162.078125 981.417969 98.390625 823.285156 81.996094 C 794.785156 79.039062 729.589844 79.195312 699.378906 82.292969 M 785.355469 568.464844 C 643.171875 710.074219 500.933594 851.710938 358.632812 993.371094 L 282.140625 1069.574219 L 282.140625 1083.492188 C 282.140625 1094.992188 283.355469 1098.871094 289.132812 1105.789062 C 294.691406 1112.449219 298.003906 1114.164062 305.308594 1114.164062 C 310.359375 1114.164062 316.691406 1113.464844 319.378906 1112.613281 C 322.0625 1111.761719 374.242188 1058 435.324219 993.148438 C 481.957031 943.636719 528.617188 894.125 575.304688 844.617188 C 591.210938 827.78125 640.652344 775.316406 685.179688 728.03125 C 809.890625 595.589844 969.203125 427.984375 1031.167969 364.03125 L 1058.25 336.082031 L 1058.453125 744.464844 L 876.597656 744.464844 C 762.925781 744.464844 694.425781 745.375 693.898438 746.890625 C 693.433594 748.222656 680.253906 762.265625 664.609375 778.097656 C 648.960938 793.929688 636.160156 807.628906 636.160156 808.546875 C 636.160156 809.464844 731.242188 810.214844 847.449219 810.214844 L 1058.746094 810.214844 L 1057.890625 961.304688 C 1057.042969 1111.242188 1056.988281 1112.527344 1051.203125 1129.847656 C 1046.613281 1143.574219 1042.558594 1150.113281 1032.222656 1160.453125 C 1024.988281 1167.679688 1014.847656 1174.996094 1009.683594 1176.699219 C 1004.519531 1178.402344 1000.292969 1180.847656 1000.292969 1182.128906 C 1000.292969 1183.515625 1040.382812 1184.460938 1098.914062 1184.460938 C 1153.152344 1184.460938 1197.53125 1183.59375 1197.53125 1182.527344 C 1197.53125 1181.460938 1191.710938 1178.523438 1184.589844 1175.996094 C 1167.890625 1170.0625 1151.621094 1153.433594 1143.953125 1134.445312 L 1138.109375 1119.980469 L 1136.625 810.214844 L 1258.222656 810.214844 L 1258.222656 758.375 C 1258.222656 729.863281 1257.746094 706.535156 1257.164062 706.535156 C 1256.582031 706.535156 1253.742188 710.359375 1250.851562 715.035156 C 1238.027344 735.785156 1213.425781 744.367188 1166.570312 744.425781 L 1136.867188 744.464844 L 1135.578125 219.761719 Z M 416.164062 235.949219 C 342.777344 252.144531 283.882812 296.445312 252.207031 359.269531 C 241.460938 380.582031 234.207031 407.738281 232.386719 433.4375 C 230.601562 458.675781 233.21875 458.808594 238.003906 433.714844 C 245.09375 396.492188 261.632812 365.847656 290.140625 337.09375 C 305.710938 321.394531 314.160156 315.265625 333.128906 305.917969 C 367.226562 289.117188 392.730469 283.335938 426.136719 284.824219 C 553.730469 290.523438 622.859375 421.433594 573.917969 564.679688 C 546.691406 644.371094 500.703125 710.160156 379.308594 843.085938 C 288.945312 942.03125 250.304688 1004.714844 234.53125 1077.933594 C 228.96875 1103.769531 230.988281 1106.339844 237.769531 1082.050781 C 240.101562 1073.703125 246.949219 1056.617188 252.988281 1044.082031 C 273.949219 1000.585938 298.34375 972.3125 378.800781 898.261719 C 517.511719 770.601562 580.734375 702.90625 629.902344 629.410156 C 697.589844 528.222656 711.890625 430.695312 671.105469 348.390625 C 645.375 296.464844 594.972656 255.777344 535.011719 238.535156 C 507.519531 230.628906 446.296875 229.296875 416.164062 235.949219 " fill-opacity="1" fill-rule="evenodd"/><path fill="#000000" d="M 676.703125 897.296875 C 602.152344 912.804688 544.074219 955.730469 508.570312 1021.570312 C 470.273438 1092.597656 471.238281 1180.082031 511.078125 1248.925781 C 544.851562 1307.292969 599.328125 1348.246094 665.273438 1364.839844 C 682.027344 1369.054688 692.121094 1369.96875 721.605469 1369.9375 C 753.382812 1369.910156 760.144531 1369.1875 780.199219 1363.667969 C 863.117188 1340.851562 924.898438 1282.039062 951.164062 1200.921875 C 957.828125 1180.332031 958.785156 1173.996094 959.75 1144.140625 C 961.050781 1103.949219 957.242188 1079.40625 944.828125 1047.960938 C 932.246094 1016.089844 917.464844 992.804688 894.480469 968.648438 C 862.1875 934.714844 827.835938 913.988281 783.484375 901.679688 C 756.550781 894.207031 702.269531 891.976562 676.703125 897.296875 M 699.589844 925.261719 C 697.039062 925.847656 686.324219 928.023438 675.78125 930.09375 C 665.234375 932.160156 656.207031 934.496094 655.71875 935.285156 C 655.230469 936.074219 666.984375 936.378906 681.84375 935.964844 C 788.992188 932.980469 886.417969 1007.238281 914.117188 1113.007812 C 917.066406 1124.265625 919.574219 1143.527344 920.585938 1162.683594 L 922.238281 1193.96875 L 925.632812 1180.0625 C 930.765625 1159.050781 930.25 1101.234375 924.738281 1080.40625 C 918.898438 1058.328125 900.523438 1021.207031 885.886719 1001.933594 C 861.53125 969.859375 818.65625 942.125 776.070312 930.890625 C 758.3125 926.207031 710.671875 922.699219 699.589844 925.261719 M 750.574219 1022.261719 C 712.691406 1031.664062 680.082031 1066.691406 675.566406 1102.828125 C 673.300781 1120.964844 676.5 1144.863281 683.136719 1159.359375 C 691.324219 1177.242188 711.402344 1197.496094 730.390625 1207.023438 C 745.347656 1214.53125 746.957031 1214.828125 772.59375 1214.828125 C 797.785156 1214.828125 800.105469 1214.421875 814.945312 1207.390625 C 835.570312 1197.621094 853.882812 1179.304688 863.652344 1158.683594 C 870.578125 1144.0625 871.085938 1141.308594 871.015625 1118.648438 C 870.921875 1087.292969 866.054688 1074.21875 846.554688 1052.9375 C 820.914062 1024.957031 785.425781 1013.613281 750.574219 1022.261719 M 754.089844 1055.726562 C 743.84375 1061.226562 738.066406 1069.039062 736.328125 1079.757812 C 734.515625 1090.925781 736.511719 1098.1875 743.777344 1106.820312 L 749.722656 1113.886719 L 741.484375 1121.117188 C 726.324219 1134.429688 724.859375 1155.664062 738.058594 1170.699219 C 756.175781 1191.335938 797.800781 1188.058594 810.023438 1165.035156 C 818.320312 1149.402344 813.566406 1128.976562 799.484375 1119.75 L 793.707031 1115.964844 L 801.546875 1109.078125 C 820.484375 1092.453125 815.527344 1064.472656 791.894531 1054.597656 C 781.164062 1050.113281 763.578125 1050.640625 754.089844 1055.726562 M 764.535156 1068.984375 C 756.042969 1073.394531 754.132812 1076.253906 754.085938 1084.617188 C 754.039062 1093.640625 757.601562 1099.425781 765.824219 1103.679688 C 776.484375 1109.191406 789.039062 1103.503906 793.820312 1090.988281 C 799.59375 1075.894531 779.824219 1061.046875 764.535156 1068.984375 M 761.902344 1125.554688 C 754.785156 1128.429688 747.097656 1139.179688 747.097656 1146.253906 C 747.097656 1159.421875 762.425781 1171.1875 776.210938 1168.601562 C 784.789062 1166.992188 795.769531 1155.699219 795.769531 1148.484375 C 795.769531 1140.898438 789.15625 1130.53125 781.941406 1126.800781 C 774.414062 1122.90625 769.25 1122.585938 761.902344 1125.554688 " fill-opacity="1" fill-rule="evenodd"/></svg>