<svg xmlns="http://www.w3.org/2000/svg" xmlns:xlink="http://www.w3.org/1999/xlink" width="2000" zoomAndPan="magnify" viewBox="0 0 1500 1499.999933" height="2000" preserveAspectRatio="xMidYMid meet" version="1.0"><path fill="#ffffff" d="M 639.226562 206.367188 C 467.089844 242.175781 332.992188 341.292969 251.015625 493.320312 C 162.585938 657.3125 164.808594 859.320312 256.796875 1018.273438 C 334.789062 1153.046875 460.574219 1247.601562 612.835938 1285.917969 C 651.519531 1295.652344 674.832031 1297.761719 742.910156 1297.695312 C 816.28125 1297.625 831.894531 1295.957031 878.207031 1283.214844 C 1069.660156 1230.53125 1212.308594 1094.738281 1272.953125 907.4375 C 1288.34375 859.898438 1290.554688 845.265625 1292.785156 776.332031 C 1295.78125 683.523438 1286.992188 626.859375 1258.328125 554.253906 C 1229.277344 480.664062 1195.144531 426.898438 1142.074219 371.121094 C 1067.507812 292.761719 988.191406 244.90625 885.789062 216.492188 C 823.597656 199.234375 698.265625 194.085938 639.230469 206.367188 M 692.074219 270.933594 C 686.1875 272.292969 661.445312 277.320312 637.097656 282.09375 C 612.75 286.871094 591.90625 292.265625 590.777344 294.085938 C 589.648438 295.90625 616.789062 296.609375 651.101562 295.652344 C 898.503906 288.761719 1123.457031 460.222656 1187.417969 704.449219 C 1194.226562 730.4375 1200.015625 774.914062 1202.347656 819.140625 L 1206.164062 891.382812 L 1214.003906 859.277344 C 1225.859375 810.757812 1224.664062 677.261719 1211.945312 629.171875 C 1198.457031 578.183594 1156.027344 492.476562 1122.234375 447.976562 C 1066 373.914062 967 309.875 868.664062 283.933594 C 827.664062 273.117188 717.667969 265.023438 692.074219 270.933594 M 809.800781 494.914062 C 722.328125 516.625 647.03125 597.503906 636.605469 680.941406 C 631.371094 722.820312 638.761719 777.996094 654.089844 811.472656 C 672.988281 852.757812 719.351562 899.523438 763.191406 921.523438 C 797.726562 938.859375 801.441406 939.546875 860.636719 939.546875 C 918.804688 939.546875 924.164062 938.605469 958.425781 922.375 C 1006.046875 899.816406 1048.339844 857.527344 1070.894531 809.90625 C 1086.886719 776.148438 1088.058594 769.792969 1087.898438 717.46875 C 1087.675781 645.070312 1076.441406 614.878906 1031.414062 565.742188 C 972.210938 501.132812 890.269531 474.941406 809.800781 494.914062 M 817.917969 572.183594 C 794.253906 584.878906 780.914062 602.921875 776.902344 627.667969 C 772.71875 653.460938 777.328125 670.226562 794.101562 690.152344 L 807.832031 706.46875 L 788.8125 723.167969 C 753.804688 753.902344 750.417969 802.9375 780.898438 837.65625 C 822.734375 885.304688 918.84375 877.738281 947.066406 824.578125 C 966.222656 788.480469 955.25 741.316406 922.730469 720.007812 L 909.386719 711.269531 L 927.496094 695.371094 C 971.21875 656.988281 959.769531 592.375 905.210938 569.578125 C 880.425781 559.222656 839.820312 560.4375 817.917969 572.183594 M 842.03125 602.792969 C 822.425781 612.976562 818.015625 619.574219 817.910156 638.890625 C 817.796875 659.726562 826.019531 673.082031 845.011719 682.902344 C 869.628906 695.632812 898.609375 682.496094 909.65625 653.605469 C 922.980469 618.75 877.339844 584.464844 842.03125 602.792969 M 835.957031 733.414062 C 819.523438 740.054688 801.773438 764.875 801.773438 781.210938 C 801.773438 811.617188 837.160156 838.78125 868.992188 832.808594 C 888.800781 829.09375 914.152344 803.019531 914.152344 786.359375 C 914.152344 768.84375 898.882812 744.902344 882.21875 736.289062 C 864.84375 727.300781 852.921875 726.558594 835.957031 733.414062 " fill-opacity="1" fill-rule="evenodd"/></svg>