<svg xmlns="http://www.w3.org/2000/svg" xmlns:xlink="http://www.w3.org/1999/xlink" width="2000" zoomAndPan="magnify" viewBox="0 0 1500 1499.999933" height="2000" preserveAspectRatio="xMidYMid meet" version="1.0"><path fill="#000000" d="M 638.90625 214.828125 C 466.773438 250.636719 332.683594 349.75 250.707031 501.765625 C 162.28125 665.757812 164.507812 867.753906 256.492188 1026.703125 C 334.480469 1161.46875 460.261719 1256.023438 612.515625 1294.335938 C 651.199219 1304.070312 674.507812 1306.179688 742.585938 1306.113281 C 815.953125 1306.042969 831.570312 1304.375 877.875 1291.632812 C 1069.320312 1238.953125 1211.964844 1103.164062 1272.609375 915.871094 C 1288 868.332031 1290.210938 853.703125 1292.441406 784.769531 C 1295.4375 691.964844 1286.644531 635.304688 1257.984375 562.699219 C 1228.933594 489.113281 1194.804688 435.351562 1141.734375 379.574219 C 1067.171875 301.21875 987.859375 253.363281 885.460938 224.949219 C 823.269531 207.695312 697.941406 202.546875 638.910156 214.828125 M 691.75 279.390625 C 685.863281 280.75 661.125 285.777344 636.777344 290.550781 C 612.429688 295.328125 591.589844 300.722656 590.460938 302.542969 C 589.332031 304.359375 616.472656 305.066406 650.78125 304.109375 C 898.171875 297.21875 1123.117188 468.671875 1187.078125 712.890625 C 1193.882812 738.878906 1199.675781 783.351562 1202.007812 827.578125 L 1205.824219 899.816406 L 1213.664062 867.710938 C 1225.515625 819.191406 1224.320312 685.707031 1211.601562 637.613281 C 1198.117188 586.628906 1155.6875 500.925781 1121.898438 456.429688 C 1065.664062 382.367188 966.667969 318.332031 868.335938 292.390625 C 827.335938 281.574219 717.34375 273.480469 691.75 279.390625 M 809.472656 503.363281 C 722.003906 525.070312 646.710938 605.949219 636.285156 689.382812 C 631.054688 731.257812 638.441406 786.433594 653.769531 819.910156 C 672.667969 861.195312 719.03125 907.957031 762.867188 929.953125 C 797.402344 947.292969 801.117188 947.976562 860.308594 947.976562 C 918.476562 947.976562 923.832031 947.035156 958.09375 930.804688 C 1005.714844 908.25 1048.003906 865.960938 1070.558594 818.34375 C 1086.546875 784.585938 1087.71875 778.230469 1087.558594 725.90625 C 1087.339844 653.511719 1076.101562 623.320312 1031.078125 574.1875 C 971.878906 509.578125 889.9375 483.390625 809.472656 503.363281 M 817.59375 580.632812 C 793.929688 593.324219 780.589844 611.367188 776.574219 636.109375 C 772.390625 661.902344 777.003906 678.667969 793.773438 698.59375 L 807.503906 714.910156 L 788.488281 731.605469 C 753.480469 762.34375 750.09375 811.375 780.574219 846.09375 C 822.40625 893.738281 918.511719 886.171875 946.734375 833.015625 C 965.890625 796.917969 954.917969 749.757812 922.398438 728.449219 L 909.058594 719.710938 L 927.164062 703.8125 C 970.882812 665.429688 959.4375 600.820312 904.878906 578.023438 C 880.097656 567.671875 839.492188 568.886719 817.59375 580.632812 M 841.703125 611.238281 C 822.097656 621.421875 817.6875 628.019531 817.582031 647.332031 C 817.46875 668.167969 825.695312 681.523438 844.683594 691.34375 C 869.300781 704.074219 898.28125 690.9375 909.324219 662.046875 C 922.648438 627.195312 877.011719 592.910156 841.703125 611.238281 M 835.628906 741.851562 C 819.199219 748.496094 801.449219 773.3125 801.449219 789.648438 C 801.449219 820.054688 836.835938 847.214844 868.664062 841.246094 C 888.472656 837.53125 913.820312 811.453125 913.820312 794.796875 C 913.820312 777.28125 898.554688 753.34375 881.890625 744.726562 C 864.515625 735.742188 852.59375 735 835.628906 741.855469 " fill-opacity="1" fill-rule="evenodd"/></svg>