<svg xmlns="http://www.w3.org/2000/svg" xmlns:xlink="http://www.w3.org/1999/xlink" width="1693" zoomAndPan="magnify" viewBox="0 0 1269.75 696.749996" height="929" preserveAspectRatio="xMidYMid meet" version="1.0"><path fill="#000000" d="M 513.898438 244.417969 C 511.453125 245.402344 509.675781 248.628906 509.519531 252.351562 C 509.445312 254.171875 509.511719 255.660156 509.675781 255.660156 C 509.835938 255.660156 510.96875 254.515625 512.191406 253.121094 C 515.28125 249.601562 517.160156 249.265625 519.582031 251.792969 C 520.660156 252.921875 521.921875 254.503906 522.390625 255.3125 C 523.082031 256.503906 523.167969 256.070312 522.855469 253.035156 C 522.355469 248.257812 520.851562 245.289062 518.457031 244.378906 C 516.253906 243.542969 516.070312 243.542969 513.898438 244.417969 M 500.9375 273.464844 C 496.554688 281.691406 492.152344 289.90625 487.726562 298.105469 C 483.914062 305.167969 472.042969 327.433594 461.339844 347.589844 C 450.636719 367.746094 440.710938 386.261719 439.28125 388.734375 C 437.855469 391.210938 435.09375 396.1875 433.152344 399.792969 L 429.621094 406.355469 L 449.589844 406.355469 L 460.230469 383.675781 C 466.082031 371.203125 473.382812 355.429688 476.449219 348.625 C 479.515625 341.820312 487.835938 323.433594 494.9375 307.765625 C 510.886719 272.582031 513.667969 266.28125 513.667969 265.359375 C 513.667969 264.554688 509.246094 261.664062 508.003906 261.660156 C 507.570312 261.65625 504.390625 266.96875 500.9375 273.464844 M 521.351562 263.136719 C 520.011719 263.960938 518.917969 264.921875 518.917969 265.273438 C 518.917969 266.179688 551.273438 336.472656 571.4375 379.363281 L 583.949219 405.980469 L 593.882812 406.1875 C 603.101562 406.382812 603.777344 406.304688 603.308594 405.078125 C 603.027344 404.351562 598.480469 395.992188 593.195312 386.5 C 583.304688 368.726562 554.160156 314.886719 536.171875 281.152344 C 530.566406 270.640625 525.488281 261.949219 524.882812 261.839844 C 524.28125 261.730469 522.695312 262.3125 521.351562 263.136719 M 1067.34375 279.359375 C 1058.707031 280.457031 1053.457031 281.5 1049.109375 282.976562 C 1025.109375 291.144531 1007.011719 311.511719 1002.0625 335.929688 C 1001.113281 340.621094 1000.898438 344.515625 1001.179688 351.9375 C 1001.386719 357.332031 1001.789062 362.300781 1002.074219 362.984375 C 1002.472656 363.925781 1001.105469 365.34375 996.359375 368.925781 C 975.277344 384.8125 967.597656 394.316406 971.292969 399.957031 C 974.085938 404.214844 983.347656 404.230469 999.855469 400 C 1009.789062 397.453125 1034.347656 389.046875 1035.648438 387.746094 C 1036.035156 387.355469 1032.46875 387.988281 1027.71875 389.144531 C 1015.058594 392.234375 1003.992188 393.792969 996.863281 393.496094 C 991.488281 393.269531 990.347656 392.980469 988.683594 391.417969 C 986.203125 389.085938 986.242188 387.199219 988.867188 383.070312 C 991.195312 379.40625 1001.375 369.617188 1002.859375 369.617188 C 1003.371094 369.617188 1004.511719 371.558594 1005.390625 373.929688 C 1006.269531 376.300781 1007.765625 379.589844 1008.722656 381.238281 L 1010.453125 384.238281 L 1015.011719 384.066406 C 1023.292969 383.753906 1043.730469 378.839844 1063.222656 372.472656 C 1079.925781 367.019531 1111.621094 353.828125 1143.066406 339.246094 C 1188.625 318.117188 1210.664062 308.257812 1221.277344 304.25 C 1223.472656 303.421875 1225.117188 302.597656 1224.9375 302.417969 C 1224.171875 301.652344 1183.699219 316.929688 1157.335938 327.9375 C 1147.863281 331.894531 1139.90625 335.128906 1139.648438 335.128906 C 1139.394531 335.128906 1138.757812 333.191406 1138.238281 330.820312 C 1136.285156 321.898438 1129.523438 309.933594 1121.546875 301.273438 C 1112.132812 291.054688 1096.824219 282.726562 1083.464844 280.550781 C 1077.105469 279.515625 1070.164062 279 1067.34375 279.359375 M 119.035156 295.832031 C 102.738281 299.777344 93.269531 313.433594 94.898438 330.632812 C 96.203125 344.375 102.34375 352.488281 114.839844 356.996094 C 119.675781 358.742188 119.757812 358.746094 167.703125 359.121094 C 211.9375 359.464844 215.878906 359.601562 217.734375 360.820312 C 220.738281 362.789062 222.070312 365.285156 222.539062 369.828125 C 223.339844 377.574219 220.058594 382.527344 213.269531 383.816406 C 210.976562 384.25 190.585938 384.445312 162.316406 384.304688 C 136.394531 384.175781 112.558594 384.273438 109.351562 384.527344 L 103.511719 384.988281 L 99.414062 393.863281 C 97.164062 398.746094 95.320312 402.878906 95.320312 403.046875 C 95.320312 403.753906 215.894531 403.304688 220.359375 402.578125 C 230.757812 400.890625 239.460938 394.617188 243.484375 385.902344 C 245.511719 381.519531 245.640625 380.648438 245.640625 371.453125 L 245.640625 361.664062 L 242.800781 355.921875 C 239.804688 349.863281 236.453125 346.472656 230.480469 343.464844 C 223.199219 339.796875 221.011719 339.652344 172.539062 339.636719 C 130.851562 339.625 126.972656 339.519531 124.613281 338.316406 C 120.75 336.347656 119.082031 333.566406 118.714844 328.5 C 118.253906 322.144531 120.371094 317.601562 124.714844 315.628906 C 127.804688 314.230469 130.011719 314.167969 180.148438 314.152344 L 232.363281 314.136719 L 235.898438 305.328125 C 237.203125 302.078125 238.507812 298.832031 239.808594 295.582031 C 240.386719 294.113281 125.152344 294.351562 119.035156 295.832031 M 279.753906 304.390625 L 279.753906 314.136719 L 391.226562 314.136719 L 394.453125 315.84375 C 399.222656 318.363281 400.460938 321.222656 400.460938 329.71875 C 400.460938 339.234375 398.28125 343.042969 391.835938 344.800781 C 389.800781 345.355469 371.320312 345.621094 334.296875 345.621094 L 279.753906 345.625 L 279.753906 403.355469 L 303.742188 403.355469 L 303.742188 364.371094 L 349.289062 364.359375 C 399.4375 364.347656 400.324219 364.277344 408.835938 359.742188 C 414.328125 356.8125 417.945312 352.855469 420.972656 346.46875 C 423.191406 341.785156 423.339844 340.917969 423.582031 331.253906 C 423.785156 323.300781 423.5625 320.023438 422.585938 316.632812 C 420.25 308.503906 415.300781 302.488281 407.839844 298.707031 C 400.015625 294.746094 398.734375 294.671875 336.917969 294.65625 L 279.753906 294.644531 Z M 655.367188 295.78125 C 639.070312 299.109375 628.113281 308.304688 622.855469 323.0625 C 621.546875 326.742188 621.324219 329.671875 621.058594 346.894531 C 620.777344 364.9375 620.878906 367.039062 622.320312 372.730469 C 623.179688 376.140625 624.980469 380.746094 626.320312 382.96875 C 631.335938 391.308594 640.953125 398.269531 651.992188 401.5625 C 656.105469 402.789062 661.339844 402.925781 712.910156 403.160156 C 766.757812 403.40625 769.328125 403.355469 769.328125 402.074219 C 769.328125 400.242188 765.003906 385.238281 764.265625 384.496094 C 763.9375 384.171875 740.90625 383.808594 713.078125 383.695312 L 662.488281 383.488281 L 658.316406 381.53125 C 652.878906 378.980469 649.035156 374.9375 647.082031 369.714844 C 645.613281 365.792969 645.523438 364.296875 645.753906 347.878906 C 646 330.433594 646.023438 330.21875 648.011719 326.441406 C 650.363281 321.980469 654.289062 318.304688 659.078125 316.089844 C 662.414062 314.546875 663.625 314.503906 713.46875 314.136719 L 764.449219 313.761719 L 765.300781 311.136719 C 765.769531 309.695312 767 305.394531 768.039062 301.578125 L 769.925781 294.644531 L 715.082031 294.714844 C 672.664062 294.769531 659.136719 295.011719 655.367188 295.78125 M 812.0625 304.394531 L 812.0625 314.144531 L 948.773438 313.761719 L 951.976562 304.765625 C 953.738281 299.816406 955.199219 295.515625 955.21875 295.207031 C 955.242188 294.898438 923.039062 294.644531 883.660156 294.644531 L 812.0625 294.644531 Z M 1062.710938 309.628906 C 1053.902344 311.492188 1045.816406 317.882812 1041.992188 325.992188 C 1039.949219 330.328125 1039.632812 331.820312 1039.644531 337.003906 C 1039.664062 345.109375 1042.199219 350.796875 1048.3125 356.457031 C 1054.21875 361.921875 1059.332031 363.882812 1067.71875 363.890625 C 1073 363.894531 1074.964844 363.539062 1079.167969 361.796875 C 1085.59375 359.140625 1090.742188 354.527344 1094.019531 348.484375 C 1096.402344 344.089844 1096.585938 343.265625 1096.585938 336.988281 C 1096.585938 330.871094 1096.351562 329.75 1094.148438 325.273438 C 1088.46875 313.738281 1074.988281 307.03125 1062.710938 309.628906 M 1061.863281 320.859375 C 1057.1875 323.792969 1056.199219 329.675781 1059.648438 334.058594 C 1061.082031 335.882812 1061.113281 336.117188 1059.972656 336.753906 C 1056.691406 338.589844 1055.441406 345.523438 1057.699219 349.34375 C 1062.976562 358.277344 1079.722656 354.714844 1079.710938 344.664062 C 1079.710938 341.492188 1077.449219 336.628906 1075.976562 336.628906 C 1075.558594 336.628906 1075.21875 336.125 1075.21875 335.503906 C 1075.21875 334.886719 1075.558594 334.378906 1075.980469 334.378906 C 1076.398438 334.378906 1077.285156 333.238281 1077.953125 331.839844 C 1079.570312 328.449219 1078.8125 324.738281 1075.945312 321.988281 C 1074.050781 320.171875 1072.949219 319.789062 1069.019531 319.566406 C 1065.277344 319.355469 1063.851562 319.613281 1061.863281 320.859375 M 1065.28125 324.820312 C 1064.605469 325.335938 1063.832031 326.667969 1063.566406 327.78125 C 1063.1875 329.351562 1063.507812 330.234375 1064.988281 331.71875 C 1067.289062 334.015625 1069.445312 334.15625 1071.46875 332.132812 C 1075.558594 328.039062 1069.867188 321.316406 1065.28125 324.820312 M 1064.3125 339.96875 C 1063.300781 340.980469 1062.472656 342.683594 1062.472656 343.75 C 1062.472656 346.195312 1065.574219 349.375 1067.960938 349.375 C 1070.773438 349.375 1073.71875 346.644531 1073.71875 344.039062 C 1073.71875 341.25 1070.746094 338.128906 1068.09375 338.128906 C 1067.027344 338.128906 1065.324219 338.957031 1064.3125 339.96875 M 812.242188 371.300781 L 812.4375 402.980469 L 882.722656 403.171875 C 949.316406 403.351562 953.011719 403.292969 953.003906 402.046875 C 952.992188 400.542969 948.214844 385.5625 947.523438 384.871094 C 947.273438 384.621094 922.175781 384.375 891.746094 384.328125 L 836.425781 384.238281 L 836.03125 375.242188 C 835.8125 370.292969 835.773438 364.644531 835.9375 362.6875 L 836.242188 359.132812 L 889.566406 358.9375 L 942.890625 358.746094 L 942.890625 340.003906 L 877.46875 339.8125 L 812.042969 339.621094 Z M 1126.949219 355.289062 C 1087.125 374.203125 1061.773438 385.375 1038.21875 394.382812 C 1030.859375 397.199219 1024.617188 399.726562 1024.351562 399.996094 C 1023.398438 400.957031 1033.761719 408.464844 1041.257812 412.242188 C 1043.816406 413.53125 1048.875 415.492188 1052.503906 416.59375 C 1058.351562 418.375 1060.371094 418.605469 1070.34375 418.644531 C 1082.800781 418.691406 1087.535156 417.804688 1097.75 413.5 C 1106.324219 409.890625 1113.890625 404.640625 1120.949219 397.410156 C 1129.75 388.394531 1135.285156 378.585938 1138.582031 366.160156 C 1139.984375 360.878906 1140.953125 349.367188 1139.992188 349.394531 C 1139.621094 349.40625 1133.753906 352.058594 1126.949219 355.289062 M 508.191406 363.597656 C 503.144531 365.570312 498.640625 369.503906 496.027344 374.21875 C 494.046875 377.796875 493.800781 378.9375 493.808594 384.613281 C 493.820312 391.835938 495.183594 395.316406 499.824219 399.957031 C 511.855469 411.988281 533.4375 406.777344 537.933594 390.757812 C 539.464844 385.304688 539.460938 383.914062 537.925781 378.433594 C 535.386719 369.386719 525.679688 362.085938 516.292969 362.15625 C 513.75 362.175781 510.226562 362.800781 508.191406 363.597656 " fill-opacity="1" fill-rule="evenodd"/></svg>